<?xml version="1.0" encoding="UTF-8"?><svg id="Layer_1" xmlns="http://www.w3.org/2000/svg" viewBox="0 0 144 144"><defs><style>.cls-1{fill:#3e3c49;}.cls-2{fill:#00509f;}</style></defs><path class="cls-1" d="M74.03,120.22h-4.06l-.99-.62c-4.02-2.51-24.24-15.49-27.42-24.24-2.97-8.17-5.66-46.16-5.96-50.46l-.19-2.72,2.44-1.22c3.97-1.98,24.09-11.79,33.45-11.16h1.41c9.34-.64,29.48,9.17,33.45,11.16l2.44,1.22-.19,2.72c-.3,4.3-2.99,42.29-5.96,50.46-3.18,8.75-23.4,21.73-27.42,24.24l-.99.62ZM41.96,45.27c1.2,16.49,5.44,42.21,7.29,47.29,1.56,4.3,13.81,13.53,22.76,19.27,8.94-5.74,21.2-14.98,22.76-19.27,1.85-5.08,6.09-30.81,7.29-47.29-8.71-4.15-23.93-7.74-28.85-7.3h-.34s-2.05,0-2.05,0c-4.9-.43-20.14,3.15-28.85,7.3Z"/><path class="cls-2" d="M50.17,58.61c7.41-5.94,15.04-4.26,22.02-.6s18.63.15,21.66-2.54c0,0-9.1,11.52-21.3,8.53-7.81-1.91-11.13-8.02-22.38-5.38Z"/><path class="cls-2" d="M50.17,70.19c7.41-5.94,15.04-4.26,22.02-.6,7.3,3.83,18.63.15,21.66-2.54,0,0-9.1,11.52-21.3,8.53-7.81-1.91-11.13-8.02-22.38-5.38Z"/><path class="cls-2" d="M50.17,81.76c7.41-5.94,15.04-4.26,22.02-.6,7.3,3.83,18.63.15,21.66-2.54,0,0-9.1,11.52-21.3,8.53-7.81-1.91-11.13-8.02-22.38-5.38Z"/></svg>