<?xml version="1.0" encoding="UTF-8"?><svg xmlns="http://www.w3.org/2000/svg" viewBox="-189 -176 1946.6 743.2"><path fill="#ffffff" fill-rule="nonzero" d="M529.503 312.481 L522.439 311.069 C518.537 310.261 516.519 308.512 516.519 305.821 C516.519 302.256 519.412 300.238 524.39 300.238 C527.552 300.238 529.974 301.045 531.454 302.525 C532.463 303.601 533.001 304.947 532.934 306.696 L532.934 307.503 L546.523 307.503 L546.523 306.763 C546.523 295.529 538.585 289.07 524.726 289.07 C510.868 289.07 502.863 295.327 502.863 305.889 C502.863 314.634 508.312 319.881 519.412 321.967 L527.081 323.514 C532.126 324.523 534.077 326.138 534.077 329.3 C534.077 333.336 530.781 335.69 525.063 335.69 C518.806 335.69 515.241 332.73 515.039 327.416 L515.039 326.676 L501.383 326.676 L501.383 327.416 C501.383 339.592 510.196 346.858 524.996 346.858 C539.796 346.858 548.07 340.265 548.07 329.165 C548.07 320.218 542.352 315.105 529.637 312.481 L529.503 312.481 Z"/><path fill="#ffffff" fill-rule="nonzero" d="M553.452 301.718 L569.328 301.718 L569.328 346.118 L582.581 346.118 L582.581 301.718 L598.457 301.718 L598.457 289.81 L553.452 289.81 L553.452 301.718 Z"/><path fill="#ffffff" fill-rule="nonzero" d="M640.032 308.849 C640.032 313.625 637.072 316.181 631.555 316.181 L622.272 316.181 L622.272 301.449 L631.555 301.449 C637.206 301.449 640.032 303.938 640.032 308.849 Z M653.621 308.849 C653.621 296.739 645.75 289.743 631.959 289.743 L609.019 289.743 L609.019 346.05 L622.272 346.05 L622.272 327.82 L630.95 327.82 L641.377 346.05 L654.697 346.05 L642.992 325.936 C649.853 323.11 653.621 317.056 653.621 308.781 L653.621 308.849 Z"/><path fill="#ffffff" fill-rule="nonzero" d="M698.492 323.649 C698.492 331.183 695.061 335.219 688.535 335.219 C682.01 335.219 678.512 331.116 678.512 323.649 L678.512 289.743 L665.192 289.743 L665.192 324.456 C665.192 338.65 673.735 346.858 688.603 346.858 C703.47 346.858 711.879 338.718 711.879 324.456 L711.879 289.743 L698.559 289.743 L698.559 323.649 L698.492 323.649 Z"/><path fill="#ffffff" fill-rule="nonzero" d="M749.821 300.709 C755.606 300.709 759.373 303.87 760.786 309.723 L760.921 310.329 L773.77 310.329 L773.77 309.521 C772.693 296.739 763.881 289.07 750.224 289.07 C733.743 289.07 723.517 300.103 723.517 317.93 C723.517 335.758 733.675 346.858 750.023 346.858 C763.813 346.858 772.626 339.188 773.635 326.339 L773.635 325.532 L760.853 325.532 L760.719 326.138 C759.373 332.125 755.606 335.287 749.753 335.287 C738.653 335.287 736.972 324.456 736.972 317.93 C736.972 312.75 738.25 300.641 749.753 300.641 L749.821 300.709 Z"/><path fill="#ffffff" fill-rule="nonzero" d="M781.708 301.718 L797.651 301.718 L797.651 346.118 L810.904 346.118 L810.904 301.718 L826.78 301.718 L826.78 289.81 L781.708 289.81 L781.708 301.718 Z"/><path fill="#ffffff" fill-rule="nonzero" d="M870.71 323.649 C870.71 331.183 867.279 335.219 860.753 335.219 C854.228 335.219 850.73 331.116 850.73 323.649 L850.73 289.743 L837.41 289.743 L837.41 324.456 C837.41 338.65 845.953 346.858 860.82 346.858 C875.688 346.858 884.164 338.718 884.164 324.456 L884.164 289.743 L870.844 289.743 L870.844 323.649 L870.71 323.649 Z"/><path fill="#ffffff" fill-rule="nonzero" d="M929.506 308.849 C929.506 313.625 926.546 316.181 921.03 316.181 L911.746 316.181 L911.746 301.449 L921.03 301.449 C926.68 301.449 929.506 303.938 929.506 308.849 Z M943.095 308.849 C943.095 296.739 935.224 289.743 921.433 289.743 L898.493 289.743 L898.493 346.05 L911.746 346.05 L911.746 327.82 L920.424 327.82 L930.851 346.05 L944.171 346.05 L932.466 325.936 C939.327 323.11 943.095 317.056 943.095 308.781 L943.095 308.849 Z"/><path fill="#ffffff" fill-rule="nonzero" d="M985.544 325.667 L970.475 325.667 L978.009 303.803 L985.544 325.667 L985.544 325.667 Z M986.082 289.81 L969.937 289.81 L949.957 345.109 L949.62 346.118 L963.546 346.118 L967.044 335.825 L989.042 335.825 L992.54 346.118 L1006.47 346.118 L986.284 290.281 L986.082 289.81 L986.082 289.81 Z"/><path fill="#ffffff" fill-rule="nonzero" d="M1029.54 289.81 L1016.29 289.81 L1016.29 346.118 L1054.77 346.118 L1054.77 334.412 L1029.54 334.412 L1029.54 289.81 Z"/><path fill="#ffffff" fill-rule="nonzero" d="M1114.17 312.481 L1107.11 311.069 C1103.2 310.261 1101.19 308.512 1101.19 305.821 C1101.19 302.256 1104.08 300.238 1109.06 300.238 C1112.15 300.238 1114.64 301.045 1116.05 302.525 C1117.06 303.601 1117.6 304.947 1117.53 306.696 L1117.53 307.503 L1131.12 307.503 L1131.12 306.763 C1131.12 295.529 1123.18 289.07 1109.33 289.07 C1095.47 289.07 1087.39 295.327 1087.39 305.889 C1087.39 314.567 1092.84 319.881 1103.94 321.967 L1111.61 323.514 C1116.66 324.523 1118.61 326.138 1118.61 329.3 C1118.61 333.336 1115.31 335.69 1109.59 335.69 C1103.34 335.69 1099.77 332.73 1099.57 327.416 L1099.57 326.676 L1085.91 326.676 L1085.91 327.416 C1085.91 339.592 1094.73 346.858 1109.53 346.858 C1124.33 346.858 1132.6 340.265 1132.6 329.165 C1132.6 320.218 1126.88 315.105 1114.1 312.481 L1114.17 312.481 Z"/><path fill="#ffffff" fill-rule="nonzero" d="M1181.85 317.93 C1181.85 328.761 1176.87 335.287 1168.53 335.287 C1160.18 335.287 1155.21 328.829 1155.21 317.93 C1155.21 307.032 1160.18 300.641 1168.53 300.641 C1176.87 300.641 1181.85 307.1 1181.85 317.93 Z M1168.53 289.07 C1152.45 289.07 1141.62 300.641 1141.62 317.93 C1141.62 335.219 1152.45 346.858 1168.53 346.858 C1184.6 346.858 1195.43 335.219 1195.43 317.93 C1195.43 300.641 1184.6 289.07 1168.53 289.07 Z"/><path fill="#ffffff" fill-rule="nonzero" d="M1220.39 289.81 L1207.14 289.81 L1207.14 346.118 L1245.62 346.118 L1245.62 334.412 L1220.39 334.412 L1220.39 289.81 Z"/><path fill="#ffffff" fill-rule="nonzero" d="M1289.15 323.649 C1289.15 331.183 1285.71 335.219 1279.19 335.219 C1272.66 335.219 1269.1 331.116 1269.1 323.649 L1269.1 289.743 L1255.78 289.743 L1255.78 324.456 C1255.78 338.65 1264.32 346.858 1279.19 346.858 C1294.06 346.858 1302.53 338.718 1302.53 324.456 L1302.53 289.743 L1289.21 289.743 L1289.21 323.649 L1289.15 323.649 Z"/><path fill="#ffffff" fill-rule="nonzero" d="M1313.09 301.718 L1328.97 301.718 L1328.97 346.118 L1342.22 346.118 L1342.22 301.718 L1358.1 301.718 L1358.1 289.81 L1313.09 289.81 L1313.09 301.718 Z"/><path fill="#ffffff" fill-rule="nonzero" d="M1370.21 289.81 L1383.46 289.81 L1383.46 346.118 L1370.21 346.118 L1370.21 289.81 Z"/><path fill="#ffffff" fill-rule="nonzero" d="M1437.01 317.93 C1437.01 328.761 1432.03 335.287 1423.69 335.287 C1415.35 335.287 1410.37 328.829 1410.37 317.93 C1410.37 307.032 1415.35 300.641 1423.69 300.641 C1432.03 300.641 1437.01 307.1 1437.01 317.93 Z M1423.69 289.07 C1407.61 289.07 1396.78 300.641 1396.78 317.93 C1396.78 335.219 1407.61 346.858 1423.69 346.858 C1439.77 346.858 1450.6 335.219 1450.6 317.93 C1450.6 300.641 1439.77 289.07 1423.69 289.07 Z"/><path fill="#ffffff" fill-rule="nonzero" d="M1496.88 324.254 L1475.96 290.147 L1475.76 289.81 L1462.31 289.81 L1462.31 346.118 L1475.56 346.118 L1475.56 312.347 L1496.08 345.781 L1496.28 346.118 L1510.14 346.118 L1510.14 289.81 L1496.88 289.81 L1496.88 324.254 Z"/><path fill="#ffffff" fill-rule="nonzero" d="M1550.1 312.481 L1543.03 311.069 C1539.13 310.261 1537.11 308.512 1537.11 305.821 C1537.11 302.256 1540 300.238 1544.98 300.238 C1548.08 300.238 1550.57 301.045 1551.98 302.525 C1552.99 303.601 1553.53 304.947 1553.46 306.696 L1553.46 307.503 L1567.05 307.503 L1567.05 306.763 C1567.05 295.529 1559.11 289.07 1545.25 289.07 C1531.39 289.07 1523.39 295.327 1523.39 305.889 C1523.39 314.567 1528.84 319.881 1539.94 321.967 L1547.61 323.514 C1552.65 324.523 1554.6 326.138 1554.6 329.3 C1554.6 333.336 1551.31 335.69 1545.59 335.69 C1539.33 335.69 1535.77 332.73 1535.56 327.416 L1535.56 326.676 L1521.91 326.676 L1521.91 327.416 C1521.91 339.592 1530.72 346.858 1545.52 346.858 C1560.32 346.858 1568.6 340.265 1568.6 329.165 C1568.6 320.218 1562.88 315.105 1550.16 312.481 L1550.1 312.481 Z"/><path fill="#ffffff" fill-rule="nonzero" d="M557.421 189.507 L537.508 189.507 L537.508 157.822 L557.421 157.822 C569.53 157.822 575.719 163.203 575.719 173.765 C575.719 184.327 569.395 189.507 557.421 189.507 Z M537.508 214.331 L554.663 214.331 L580.361 253.685 L612.114 253.685 L581.975 210.294 C596.574 204.24 604.646 191.323 604.646 173.698 C604.646 147.798 587.761 132.931 558.363 132.931 L509.388 132.931 L509.388 253.349 L537.576 253.349 L537.576 214.263 L537.508 214.331 Z"/><path fill="#ffffff" fill-rule="nonzero" d="M713.022 228.592 L656.312 228.592 L656.312 203.769 L696.204 203.769 L707.17 181.098 L656.312 181.098 L656.312 157.822 L711.341 157.822 L711.341 132.998 L628.124 132.998 L628.124 253.416 L713.022 253.416 L713.022 228.592 Z"/><path fill="#ffffff" fill-rule="nonzero" d="M767.85 157.822 L783.121 157.822 C805.59 157.822 813.931 167.442 813.931 193.207 C813.931 218.972 805.59 228.592 783.121 228.592 L767.85 228.592 C767.85 228.592 767.85 157.822 767.85 157.822 Z M785.61 132.998 L739.663 132.998 L739.663 253.416 L785.61 253.416 C822.408 253.416 842.657 232.023 842.657 193.207 C842.657 154.391 822.408 132.998 785.61 132.998 Z"/><path fill="#ffffff" fill-rule="nonzero" d="M946.862 228.592 L890.219 228.592 L890.219 203.769 L930.111 203.769 L941.077 181.098 L890.219 181.098 L890.219 157.822 L945.18 157.822 L945.18 132.998 L862.031 132.998 L862.031 253.416 L946.862 253.416 L946.862 228.592 Z"/><path fill="#ffffff" fill-rule="nonzero" d="M1058.4 228.592 L1001.69 228.592 L1001.69 203.769 L1041.65 203.769 L1052.61 181.098 L1001.69 181.098 L1001.69 157.822 L1056.72 157.822 L1056.72 132.998 L973.502 132.998 L973.502 253.416 L1058.4 253.416 L1058.4 228.592 Z"/><path fill="#ffffff" fill-rule="nonzero" d="M1147.4 213.321 L1118.07 134.007 L1117.73 132.998 L1083.43 132.998 L1083.43 253.416 L1111.68 253.416 L1111.68 184.26 L1136.57 252.407 L1136.91 253.416 L1157.83 253.416 L1183.26 184.26 L1183.26 253.416 L1211.45 253.416 L1211.45 132.998 L1177.14 132.998 L1147.4 213.321 Z"/><path fill="#ffffff" fill-rule="nonzero" d="M1267.62 203.769 L1307.51 203.769 L1318.48 181.098 L1267.62 181.098 L1267.62 157.822 L1322.58 157.822 L1322.58 132.998 L1239.36 132.998 L1239.36 253.416 L1324.26 253.416 L1324.26 228.592 L1267.62 228.592 L1267.62 203.769 Z"/><path fill="#ffffff" fill-rule="nonzero" d="M1398.53 189.507 L1378.62 189.507 L1378.62 157.822 L1398.53 157.822 C1410.64 157.822 1416.83 163.203 1416.83 173.765 C1416.83 184.327 1410.5 189.507 1398.53 189.507 Z M1421.4 253.752 L1453.16 253.752 L1423.02 210.361 C1437.62 204.307 1445.69 191.391 1445.69 173.765 C1445.69 147.865 1428.8 132.998 1399.4 132.998 L1350.43 132.998 L1350.43 253.416 L1378.62 253.416 L1378.62 214.331 L1395.77 214.331 L1421.47 253.685 L1421.4 253.752 Z"/><path fill="#ffffff" fill-rule="nonzero" d="M1565.77 217.56 C1565.77 198.252 1554 187.556 1526.28 181.838 L1511.21 178.811 C1502.8 177.062 1498.5 173.294 1498.5 167.576 C1498.5 159.907 1504.69 155.534 1515.45 155.534 C1522.24 155.534 1527.49 157.216 1530.59 160.445 C1532.81 162.732 1533.82 165.76 1533.75 169.392 L1533.75 170.94 L1562.61 170.94 L1562.61 169.392 C1562.61 145.376 1545.59 131.653 1515.99 131.653 C1486.39 131.653 1469.17 145.107 1469.17 167.576 C1469.17 186.211 1480.74 197.445 1504.62 201.952 L1521.03 205.316 C1531.86 207.536 1536.1 211.034 1536.1 217.761 C1536.1 226.507 1529.04 231.485 1516.66 231.485 C1503.27 231.485 1495.6 225.161 1495 213.658 L1495 212.178 L1465.94 212.178 L1465.94 213.725 C1465.94 239.76 1484.84 255.367 1516.46 255.367 C1548.08 255.367 1565.77 241.24 1565.77 217.627 L1565.77 217.56 Z"/><path fill="#D8CBA5" fill-rule="nonzero" d="M137.573 211.371 L91.9617 171.411 L164.616 171.411 L188.901 136.833 L0 136.833 L118.4 239.827 L137.573 211.371 Z"/><path fill="#D8CBA5" fill-rule="nonzero" d="M202.491 78.3053 L217.829 119.88 L34.9145 391.19 L92.9708 366.972 L257.183 123.445 L202.894 0 L148.874 119.745 L148.269 120.956 L186.076 120.956 L202.491 78.3053 Z"/><path fill="#ffffff" fill-rule="nonzero" d="M228.929 332.596 L286.178 356.478 L202.692 230.207 L119.678 355.872 L176.86 331.99 L202.692 292.905 L228.929 332.596 Z"/><path fill="#ffffff" fill-rule="nonzero" d="M368.721 390.921 L255.838 217.223 L286.447 171.411 L329.434 171.411 L282.612 229.332 L302.929 259.067 L401.819 136.833 L267.947 136.833 L214.398 216.954 L312.145 367.308 L368.721 390.921 Z"/></svg>